STARTFONT 2.1
FONT -Linotype-Palatino-Bold-I-Normal--8-80-72-72-P-45-ISO8859-1
SIZE 8 72 72
FONTBOUNDINGBOX 9 12 -1 -3

STARTPROPERTIES 22
FONTNAME_REGISTRY "-"
FOUNDRY "Linotype"
FAMILY_NAME "Palatino"
WEIGHT_NAME "Bold"
SLANT "I"
SETWIDTH_NAME "Normal"
ADD_STYLE_NAME ""
SPACING "P"
CHARSET_REGISTRY "ISO8859"
CHARSET_ENCODING "1"
PIXEL_SIZE 8
POINT_SIZE 80
RESOLUTION_X 72
RESOLUTION_Y 72
AVERAGE_WIDTH 45
FULL_NAME "Palatino-BoldItalic"
WEIGHT 10
X_HEIGHT 4
QUAD_WIDTH 5
DEFAULT_CHAR 32
FONT_DESCENT 3
FONT_ASCENT 9
ENDPROPERTIES

CHARS 190

STARTCHAR space
ENCODING 32
SWIDTH 250 0
DWIDTH 2 0
BBX 1 1 0 0
BITMAP
00
ENDCHAR

STARTCHAR exclam
ENCODING 33
SWIDTH 333 0
DWIDTH 3 0
BBX 3 6 0 0
BITMAP
60
60
C0
C0
00
C0
ENDCHAR

STARTCHAR quotedbl
ENCODING 34
SWIDTH 500 0
DWIDTH 4 0
BBX 2 2 1 4
BITMAP
C0
C0
ENDCHAR

STARTCHAR numbersign
ENCODING 35
SWIDTH 500 0
DWIDTH 5 0
BBX 4 6 0 0
BITMAP
50
50
F0
F0
A0
A0
ENDCHAR

STARTCHAR dollar
ENCODING 36
SWIDTH 500 0
DWIDTH 4 0
BBX 4 8 0 -1
BITMAP
20
70
E0
E0
60
F0
E0
40
ENDCHAR

STARTCHAR percent
ENCODING 37
SWIDTH 889 0
DWIDTH 7 0
BBX 6 6 0 0
BITMAP
48
E8
50
28
5C
48
ENDCHAR

STARTCHAR ampersand
ENCODING 38
SWIDTH 833 0
DWIDTH 7 0
BBX 6 6 0 0
BITMAP
30
60
6C
D8
D8
F0
ENDCHAR

STARTCHAR quoteright
ENCODING 39
SWIDTH 278 0
DWIDTH 2 0
BBX 2 2 0 4
BITMAP
40
C0
ENDCHAR

STARTCHAR parenleft
ENCODING 40
SWIDTH 333 0
DWIDTH 3 0
BBX 3 8 0 -2
BITMAP
20
40
C0
C0
C0
C0
C0
40
ENDCHAR

STARTCHAR parenright
ENCODING 41
SWIDTH 333 0
DWIDTH 3 0
BBX 3 7 0 -1
BITMAP
40
60
60
60
60
40
80
ENDCHAR

STARTCHAR asterisk
ENCODING 42
SWIDTH 444 0
DWIDTH 4 0
BBX 3 3 0 3
BITMAP
40
E0
C0
ENDCHAR

STARTCHAR plus
ENCODING 43
SWIDTH 606 0
DWIDTH 5 0
BBX 5 5 0 0
BITMAP
20
20
F8
20
20
ENDCHAR

STARTCHAR comma
ENCODING 44
SWIDTH 250 0
DWIDTH 2 0
BBX 2 2 0 -1
BITMAP
40
C0
ENDCHAR

STARTCHAR minus
ENCODING 45
SWIDTH 606 0
DWIDTH 5 0
BBX 5 1 0 2
BITMAP
F8
ENDCHAR

STARTCHAR period
ENCODING 46
SWIDTH 250 0
DWIDTH 2 0
BBX 1 1 0 0
BITMAP
80
ENDCHAR

STARTCHAR slash
ENCODING 47
SWIDTH 315 0
DWIDTH 3 0
BBX 3 7 0 -1
BITMAP
20
20
60
40
C0
80
80
ENDCHAR

STARTCHAR zero
ENCODING 48
SWIDTH 500 0
DWIDTH 4 0
BBX 4 6 0 0
BITMAP
20
50
D0
D0
E0
40
ENDCHAR

STARTCHAR one
ENCODING 49
SWIDTH 500 0
DWIDTH 4 0
BBX 4 6 0 0
BITMAP
10
70
30
60
60
F0
ENDCHAR

STARTCHAR two
ENCODING 50
SWIDTH 500 0
DWIDTH 4 0
BBX 4 6 0 0
BITMAP
70
B0
20
40
F0
F0
ENDCHAR

STARTCHAR three
ENCODING 51
SWIDTH 500 0
DWIDTH 4 0
BBX 4 6 0 0
BITMAP
70
30
60
30
B0
E0
ENDCHAR

STARTCHAR four
ENCODING 52
SWIDTH 500 0
DWIDTH 4 0
BBX 4 6 0 0
BITMAP
10
30
70
F0
20
70
ENDCHAR

STARTCHAR five
ENCODING 53
SWIDTH 500 0
DWIDTH 4 0
BBX 4 6 0 0
BITMAP
70
60
70
30
E0
C0
ENDCHAR

STARTCHAR six
ENCODING 54
SWIDTH 500 0
DWIDTH 4 0
BBX 4 6 0 0
BITMAP
30
60
E0
D0
D0
E0
ENDCHAR

STARTCHAR seven
ENCODING 55
SWIDTH 500 0
DWIDTH 4 0
BBX 4 6 0 0
BITMAP
F0
E0
20
40
40
C0
ENDCHAR

STARTCHAR eight
ENCODING 56
SWIDTH 500 0
DWIDTH 4 0
BBX 4 6 0 0
BITMAP
70
70
60
E0
E0
E0
ENDCHAR

STARTCHAR nine
ENCODING 57
SWIDTH 500 0
DWIDTH 4 0
BBX 4 6 0 0
BITMAP
60
B0
B0
F0
60
C0
ENDCHAR

STARTCHAR colon
ENCODING 58
SWIDTH 250 0
DWIDTH 2 0
BBX 2 4 0 0
BITMAP
40
00
00
80
ENDCHAR

STARTCHAR semicolon
ENCODING 59
SWIDTH 250 0
DWIDTH 2 0
BBX 2 5 0 -1
BITMAP
40
00
00
40
C0
ENDCHAR

STARTCHAR less
ENCODING 60
SWIDTH 606 0
DWIDTH 5 0
BBX 4 4 0 0
BITMAP
30
E0
E0
30
ENDCHAR

STARTCHAR equal
ENCODING 61
SWIDTH 606 0
DWIDTH 5 0
BBX 4 3 0 1
BITMAP
F0
00
F0
ENDCHAR

STARTCHAR greater
ENCODING 62
SWIDTH 606 0
DWIDTH 5 0
BBX 4 4 0 0
BITMAP
C0
30
30
C0
ENDCHAR

STARTCHAR question
ENCODING 63
SWIDTH 444 0
DWIDTH 4 0
BBX 3 6 1 0
BITMAP
E0
E0
40
80
00
C0
ENDCHAR

STARTCHAR at
ENCODING 64
SWIDTH 833 0
DWIDTH 7 0
BBX 5 6 0 0
BITMAP
70
B8
D8
F8
F8
70
ENDCHAR

STARTCHAR A
ENCODING 65
SWIDTH 722 0
DWIDTH 6 0
BBX 6 6 0 0
BITMAP
18
38
2C
7C
4C
CC
ENDCHAR

STARTCHAR B
ENCODING 66
SWIDTH 667 0
DWIDTH 5 0
BBX 5 6 0 0
BITMAP
70
68
70
E8
D8
F0
ENDCHAR

STARTCHAR C
ENCODING 67
SWIDTH 685 0
DWIDTH 5 0
BBX 5 6 0 0
BITMAP
38
68
C0
C0
D0
70
ENDCHAR

STARTCHAR D
ENCODING 68
SWIDTH 778 0
DWIDTH 6 0
BBX 6 6 0 0
BITMAP
78
34
34
64
68
F0
ENDCHAR

STARTCHAR E
ENCODING 69
SWIDTH 611 0
DWIDTH 5 0
BBX 5 6 0 0
BITMAP
78
60
70
C0
C0
F0
ENDCHAR

STARTCHAR F
ENCODING 70
SWIDTH 556 0
DWIDTH 4 0
BBX 5 6 0 0
BITMAP
F8
60
70
C0
C0
C0
ENDCHAR

STARTCHAR G
ENCODING 71
SWIDTH 778 0
DWIDTH 6 0
BBX 5 6 0 0
BITMAP
38
68
C0
D8
D8
70
ENDCHAR

STARTCHAR H
ENCODING 72
SWIDTH 778 0
DWIDTH 6 0
BBX 6 6 0 0
BITMAP
6C
6C
78
D8
D8
D8
ENDCHAR

STARTCHAR I
ENCODING 73
SWIDTH 389 0
DWIDTH 3 0
BBX 3 6 0 0
BITMAP
60
60
60
C0
C0
C0
ENDCHAR

STARTCHAR J
ENCODING 74
SWIDTH 389 0
DWIDTH 3 0
BBX 5 8 -1 -2
BITMAP
78
30
30
60
60
60
60
C0
ENDCHAR

STARTCHAR K
ENCODING 75
SWIDTH 722 0
DWIDTH 6 0
BBX 6 6 0 0
BITMAP
68
70
60
F0
D8
CC
ENDCHAR

STARTCHAR L
ENCODING 76
SWIDTH 611 0
DWIDTH 5 0
BBX 4 6 0 0
BITMAP
60
60
60
C0
D0
F0
ENDCHAR

STARTCHAR M
ENCODING 77
SWIDTH 944 0
DWIDTH 8 0
BBX 8 6 0 0
BITMAP
63
63
77
FE
B6
96
ENDCHAR

STARTCHAR N
ENCODING 78
SWIDTH 778 0
DWIDTH 6 0
BBX 7 6 0 0
BITMAP
26
34
3C
78
58
C8
ENDCHAR

STARTCHAR O
ENCODING 79
SWIDTH 833 0
DWIDTH 6 0
BBX 6 6 0 0
BITMAP
38
6C
CC
CC
D8
70
ENDCHAR

STARTCHAR P
ENCODING 80
SWIDTH 667 0
DWIDTH 5 0
BBX 5 6 0 0
BITMAP
70
68
68
F0
C0
C0
ENDCHAR

STARTCHAR Q
ENCODING 81
SWIDTH 833 0
DWIDTH 7 0
BBX 6 8 0 -2
BITMAP
38
6C
CC
CC
D8
70
34
58
ENDCHAR

STARTCHAR R
ENCODING 82
SWIDTH 722 0
DWIDTH 6 0
BBX 6 6 0 0
BITMAP
70
68
68
F0
D8
CC
ENDCHAR

STARTCHAR S
ENCODING 83
SWIDTH 556 0
DWIDTH 5 0
BBX 5 6 0 0
BITMAP
38
60
70
18
B0
E0
ENDCHAR

STARTCHAR T
ENCODING 84
SWIDTH 611 0
DWIDTH 6 0
BBX 6 6 0 0
BITMAP
FC
B4
30
60
60
60
ENDCHAR

STARTCHAR U
ENCODING 85
SWIDTH 778 0
DWIDTH 7 0
BBX 7 6 0 0
BITMAP
EE
6C
6C
D8
D8
EC
ENDCHAR

STARTCHAR V
ENCODING 86
SWIDTH 667 0
DWIDTH 5 0
BBX 5 6 0 0
BITMAP
C8
C8
D0
70
60
60
ENDCHAR

STARTCHAR W
ENCODING 87
SWIDTH 1000 0
DWIDTH 8 0
BBX 8 6 0 0
BITMAP
E9
6D
7E
6E
24
24
ENDCHAR

STARTCHAR X
ENCODING 88
SWIDTH 722 0
DWIDTH 6 0
BBX 6 6 0 0
BITMAP
64
38
30
30
58
98
ENDCHAR

STARTCHAR Y
ENCODING 89
SWIDTH 611 0
DWIDTH 5 0
BBX 5 6 0 0
BITMAP
C8
D0
60
60
60
60
ENDCHAR

STARTCHAR Z
ENCODING 90
SWIDTH 667 0
DWIDTH 5 0
BBX 5 6 0 0
BITMAP
78
50
20
60
D0
F0
ENDCHAR

STARTCHAR bracketleft
ENCODING 91
SWIDTH 333 0
DWIDTH 3 0
BBX 4 7 0 -1
BITMAP
70
60
60
60
C0
C0
E0
ENDCHAR

STARTCHAR backslash
ENCODING 92
SWIDTH 606 0
DWIDTH 5 0
BBX 4 6 0 0
BITMAP
C0
40
60
20
30
10
ENDCHAR

STARTCHAR bracketright
ENCODING 93
SWIDTH 333 0
DWIDTH 3 0
BBX 4 7 0 -1
BITMAP
70
30
30
30
60
60
E0
ENDCHAR

STARTCHAR asciicircum
ENCODING 94
SWIDTH 606 0
DWIDTH 5 0
BBX 4 4 0 2
BITMAP
60
60
F0
90
ENDCHAR

STARTCHAR underscore
ENCODING 95
SWIDTH 500 0
DWIDTH 4 0
BBX 4 1 0 -1
BITMAP
F0
ENDCHAR

STARTCHAR quoteleft
ENCODING 96
SWIDTH 278 0
DWIDTH 2 0
BBX 2 2 0 4
BITMAP
C0
80
ENDCHAR

STARTCHAR a
ENCODING 97
SWIDTH 556 0
DWIDTH 4 0
BBX 4 4 0 0
BITMAP
70
70
E0
F0
ENDCHAR

STARTCHAR b
ENCODING 98
SWIDTH 537 0
DWIDTH 4 0
BBX 4 6 0 0
BITMAP
E0
60
70
D0
E0
C0
ENDCHAR

STARTCHAR c
ENCODING 99
SWIDTH 444 0
DWIDTH 4 0
BBX 4 4 0 0
BITMAP
70
C0
C0
E0
ENDCHAR

STARTCHAR d
ENCODING 100
SWIDTH 556 0
DWIDTH 5 0
BBX 5 6 0 0
BITMAP
38
18
78
B0
F0
B0
ENDCHAR

STARTCHAR e
ENCODING 101
SWIDTH 444 0
DWIDTH 4 0
BBX 4 4 0 0
BITMAP
70
F0
C0
E0
ENDCHAR

STARTCHAR f
ENCODING 102
SWIDTH 333 0
DWIDTH 4 0
BBX 5 8 -1 -2
BITMAP
18
30
78
30
60
60
60
C0
ENDCHAR

STARTCHAR g
ENCODING 103
SWIDTH 500 0
DWIDTH 4 0
BBX 5 6 -1 -2
BITMAP
38
70
70
60
F0
F0
ENDCHAR

STARTCHAR h
ENCODING 104
SWIDTH 556 0
DWIDTH 4 0
BBX 4 6 0 0
BITMAP
E0
60
70
70
D0
D0
ENDCHAR

STARTCHAR i
ENCODING 105
SWIDTH 333 0
DWIDTH 3 0
BBX 3 6 0 0
BITMAP
60
00
60
60
C0
E0
ENDCHAR

STARTCHAR j
ENCODING 106
SWIDTH 333 0
DWIDTH 3 0
BBX 3 8 -1 -2
BITMAP
60
00
60
60
60
60
C0
C0
ENDCHAR

STARTCHAR k
ENCODING 107
SWIDTH 556 0
DWIDTH 5 0
BBX 4 6 0 0
BITMAP
E0
60
70
60
F0
F0
ENDCHAR

STARTCHAR l
ENCODING 108
SWIDTH 333 0
DWIDTH 3 0
BBX 3 6 0 0
BITMAP
60
60
60
C0
C0
E0
ENDCHAR

STARTCHAR m
ENCODING 109
SWIDTH 833 0
DWIDTH 7 0
BBX 6 4 0 0
BITMAP
7C
7C
F8
FC
ENDCHAR

STARTCHAR n
ENCODING 110
SWIDTH 556 0
DWIDTH 5 0
BBX 4 4 0 0
BITMAP
70
70
D0
D0
ENDCHAR

STARTCHAR o
ENCODING 111
SWIDTH 556 0
DWIDTH 4 0
BBX 4 4 0 0
BITMAP
70
D0
D0
E0
ENDCHAR

STARTCHAR p
ENCODING 112
SWIDTH 556 0
DWIDTH 4 0
BBX 5 6 -1 -2
BITMAP
70
68
70
60
C0
C0
ENDCHAR

STARTCHAR q
ENCODING 113
SWIDTH 537 0
DWIDTH 4 0
BBX 4 6 0 -2
BITMAP
70
B0
E0
E0
60
60
ENDCHAR

STARTCHAR r
ENCODING 114
SWIDTH 389 0
DWIDTH 3 0
BBX 4 4 0 0
BITMAP
F0
60
C0
C0
ENDCHAR

STARTCHAR s
ENCODING 115
SWIDTH 444 0
DWIDTH 4 0
BBX 4 4 0 0
BITMAP
70
60
70
E0
ENDCHAR

STARTCHAR t
ENCODING 116
SWIDTH 389 0
DWIDTH 4 0
BBX 4 5 0 0
BITMAP
60
F0
60
C0
E0
ENDCHAR

STARTCHAR u
ENCODING 117
SWIDTH 556 0
DWIDTH 5 0
BBX 5 4 0 0
BITMAP
D8
58
B0
F0
ENDCHAR

STARTCHAR v
ENCODING 118
SWIDTH 556 0
DWIDTH 4 0
BBX 5 4 -1 0
BITMAP
E8
68
70
60
ENDCHAR

STARTCHAR w
ENCODING 119
SWIDTH 833 0
DWIDTH 6 0
BBX 6 4 0 0
BITMAP
FC
54
7C
78
ENDCHAR

STARTCHAR x
ENCODING 120
SWIDTH 500 0
DWIDTH 5 0
BBX 5 4 0 0
BITMAP
58
70
70
D0
ENDCHAR

STARTCHAR y
ENCODING 121
SWIDTH 556 0
DWIDTH 5 0
BBX 5 6 0 -2
BITMAP
D8
58
70
70
30
E0
ENDCHAR

STARTCHAR z
ENCODING 122
SWIDTH 500 0
DWIDTH 5 0
BBX 5 4 0 0
BITMAP
78
30
60
F0
ENDCHAR

STARTCHAR braceleft
ENCODING 123
SWIDTH 333 0
DWIDTH 3 0
BBX 4 7 0 -1
BITMAP
30
40
60
C0
60
C0
40
ENDCHAR

STARTCHAR bar
ENCODING 124
SWIDTH 606 0
DWIDTH 5 0
BBX 2 6 1 0
BITMAP
C0
C0
C0
C0
C0
C0
ENDCHAR

STARTCHAR braceright
ENCODING 125
SWIDTH 333 0
DWIDTH 3 0
BBX 4 7 0 -1
BITMAP
20
30
60
30
60
20
C0
ENDCHAR

STARTCHAR asciitilde
ENCODING 126
SWIDTH 606 0
DWIDTH 5 0
BBX 4 2 0 1
BITMAP
D0
B0
ENDCHAR

STARTCHAR exclamdown
ENCODING 161
SWIDTH 333 0
DWIDTH 3 0
BBX 3 6 0 -2
BITMAP
60
00
60
60
C0
C0
ENDCHAR

STARTCHAR cent
ENCODING 162
SWIDTH 500 0
DWIDTH 4 0
BBX 4 6 0 -1
BITMAP
20
70
E0
C0
F0
40
ENDCHAR

STARTCHAR sterling
ENCODING 163
SWIDTH 500 0
DWIDTH 4 0
BBX 4 6 0 0
BITMAP
70
C0
E0
C0
D0
F0
ENDCHAR

STARTCHAR currency
ENCODING 164
SWIDTH 500 0
DWIDTH 5 0
BBX 5 5 0 1
BITMAP
A8
70
D8
70
A8
ENDCHAR

STARTCHAR yen
ENCODING 165
SWIDTH 500 0
DWIDTH 4 0
BBX 5 6 0 0
BITMAP
C8
D0
F0
F0
60
60
ENDCHAR

STARTCHAR brokenbar
ENCODING 166
SWIDTH 606 0
DWIDTH 5 0
BBX 2 6 1 0
BITMAP
C0
C0
00
C0
C0
C0
ENDCHAR

STARTCHAR section
ENCODING 167
SWIDTH 556 0
DWIDTH 4 0
BBX 4 8 0 -2
BITMAP
30
70
60
B0
D0
60
E0
C0
ENDCHAR

STARTCHAR dieresis
ENCODING 168
SWIDTH 333 0
DWIDTH 3 0
BBX 3 1 0 5
BITMAP
A0
ENDCHAR

STARTCHAR copyright
ENCODING 169
SWIDTH 747 0
DWIDTH 6 0
BBX 6 6 0 0
BITMAP
78
B4
A4
B4
84
78
ENDCHAR

STARTCHAR ordfeminine
ENCODING 170
SWIDTH 333 0
DWIDTH 3 0
BBX 3 5 0 1
BITMAP
E0
60
E0
00
E0
ENDCHAR

STARTCHAR guillemotleft
ENCODING 171
SWIDTH 500 0
DWIDTH 4 0
BBX 4 3 0 1
BITMAP
50
A0
50
ENDCHAR

STARTCHAR logicalnot
ENCODING 172
SWIDTH 606 0
DWIDTH 5 0
BBX 5 3 0 1
BITMAP
F8
08
08
ENDCHAR

STARTCHAR hyphen
ENCODING 173
SWIDTH 389 0
DWIDTH 3 0
BBX 2 1 0 2
BITMAP
C0
ENDCHAR

STARTCHAR registered
ENCODING 174
SWIDTH 747 0
DWIDTH 6 0
BBX 6 6 0 0
BITMAP
78
B4
B4
AC
84
78
ENDCHAR

STARTCHAR macron
ENCODING 175
SWIDTH 333 0
DWIDTH 3 0
BBX 3 1 0 4
BITMAP
E0
ENDCHAR

STARTCHAR degree
ENCODING 176
SWIDTH 400 0
DWIDTH 4 0
BBX 3 3 0 3
BITMAP
40
A0
40
ENDCHAR

STARTCHAR plusminus
ENCODING 177
SWIDTH 606 0
DWIDTH 5 0
BBX 5 5 0 0
BITMAP
20
20
F8
20
F8
ENDCHAR

STARTCHAR twosuperior
ENCODING 178
SWIDTH 300 0
DWIDTH 2 0
BBX 2 4 0 2
BITMAP
C0
40
80
C0
ENDCHAR

STARTCHAR threesuperior
ENCODING 179
SWIDTH 300 0
DWIDTH 2 0
BBX 2 4 0 2
BITMAP
C0
C0
40
C0
ENDCHAR

STARTCHAR acute
ENCODING 180
SWIDTH 333 0
DWIDTH 3 0
BBX 2 2 0 4
BITMAP
40
80
ENDCHAR

STARTCHAR mu
ENCODING 181
SWIDTH 556 0
DWIDTH 5 0
BBX 5 6 0 -2
BITMAP
58
58
B0
F0
80
80
ENDCHAR

STARTCHAR paragraph
ENCODING 182
SWIDTH 556 0
DWIDTH 4 0
BBX 5 8 0 -2
BITMAP
78
D0
D0
D0
A0
A0
A0
E0
ENDCHAR

STARTCHAR periodcentered
ENCODING 183
SWIDTH 250 0
DWIDTH 4 0
BBX 1 1 1 2
BITMAP
80
ENDCHAR

STARTCHAR cedilla
ENCODING 184
SWIDTH 333 0
DWIDTH 3 0
BBX 2 2 0 -2
BITMAP
40
C0
ENDCHAR

STARTCHAR onesuperior
ENCODING 185
SWIDTH 300 0
DWIDTH 2 0
BBX 1 4 0 2
BITMAP
80
80
80
80
ENDCHAR

STARTCHAR ordmasculine
ENCODING 186
SWIDTH 333 0
DWIDTH 3 0
BBX 3 5 0 1
BITMAP
40
A0
40
00
E0
ENDCHAR

STARTCHAR guillemotright
ENCODING 187
SWIDTH 500 0
DWIDTH 4 0
BBX 4 3 0 1
BITMAP
A0
50
A0
ENDCHAR

STARTCHAR onequarter
ENCODING 188
SWIDTH 750 0
DWIDTH 6 0
BBX 6 6 0 0
BITMAP
88
90
94
AC
3C
44
ENDCHAR

STARTCHAR onehalf
ENCODING 189
SWIDTH 750 0
DWIDTH 6 0
BBX 6 6 0 0
BITMAP
88
90
9C
A4
28
4C
ENDCHAR

STARTCHAR threequarters
ENCODING 190
SWIDTH 750 0
DWIDTH 6 0
BBX 6 6 0 0
BITMAP
C8
D0
54
EC
3C
44
ENDCHAR

STARTCHAR questiondown
ENCODING 191
SWIDTH 444 0
DWIDTH 4 0
BBX 3 6 0 -2
BITMAP
60
00
20
40
E0
E0
ENDCHAR

STARTCHAR Agrave
ENCODING 192
SWIDTH 722 0
DWIDTH 6 0
BBX 6 8 0 0
BITMAP
10
08
18
38
2C
7C
4C
CC
ENDCHAR

STARTCHAR Aacute
ENCODING 193
SWIDTH 722 0
DWIDTH 6 0
BBX 6 8 0 0
BITMAP
08
10
18
38
2C
7C
4C
CC
ENDCHAR

STARTCHAR Acircumflex
ENCODING 194
SWIDTH 722 0
DWIDTH 6 0
BBX 6 8 0 0
BITMAP
10
28
18
38
2C
7C
4C
CC
ENDCHAR

STARTCHAR Atilde
ENCODING 195
SWIDTH 722 0
DWIDTH 6 0
BBX 6 8 0 0
BITMAP
14
28
18
38
2C
7C
4C
CC
ENDCHAR

STARTCHAR Adieresis
ENCODING 196
SWIDTH 722 0
DWIDTH 6 0
BBX 6 8 0 0
BITMAP
14
00
18
38
2C
7C
4C
CC
ENDCHAR

STARTCHAR Aring
ENCODING 197
SWIDTH 722 0
DWIDTH 6 0
BBX 6 9 0 0
BITMAP
10
28
10
18
38
2C
7C
4C
CC
ENDCHAR

STARTCHAR AE
ENCODING 198
SWIDTH 944 0
DWIDTH 8 0
BBX 8 6 0 0
BITMAP
1F
1C
2E
3C
4C
DF
ENDCHAR

STARTCHAR Ccedilla
ENCODING 199
SWIDTH 685 0
DWIDTH 5 0
BBX 5 8 0 -2
BITMAP
38
68
C0
C0
D0
70
20
60
ENDCHAR

STARTCHAR Egrave
ENCODING 200
SWIDTH 611 0
DWIDTH 5 0
BBX 5 8 0 0
BITMAP
20
10
78
60
70
C0
C0
F0
ENDCHAR

STARTCHAR Eacute
ENCODING 201
SWIDTH 611 0
DWIDTH 5 0
BBX 5 8 0 0
BITMAP
10
20
78
60
70
C0
C0
F0
ENDCHAR

STARTCHAR Ecircumflex
ENCODING 202
SWIDTH 611 0
DWIDTH 5 0
BBX 5 8 0 0
BITMAP
10
28
78
60
70
C0
C0
F0
ENDCHAR

STARTCHAR Edieresis
ENCODING 203
SWIDTH 611 0
DWIDTH 5 0
BBX 5 8 0 0
BITMAP
28
00
78
60
70
C0
C0
F0
ENDCHAR

STARTCHAR Igrave
ENCODING 204
SWIDTH 389 0
DWIDTH 3 0
BBX 3 8 0 0
BITMAP
40
20
60
60
60
C0
C0
C0
ENDCHAR

STARTCHAR Iacute
ENCODING 205
SWIDTH 389 0
DWIDTH 3 0
BBX 3 8 0 0
BITMAP
20
40
60
60
60
C0
C0
C0
ENDCHAR

STARTCHAR Icircumflex
ENCODING 206
SWIDTH 389 0
DWIDTH 3 0
BBX 4 8 0 0
BITMAP
20
50
60
60
60
C0
C0
C0
ENDCHAR

STARTCHAR Idieresis
ENCODING 207
SWIDTH 389 0
DWIDTH 3 0
BBX 4 8 0 0
BITMAP
50
00
60
60
60
C0
C0
C0
ENDCHAR

STARTCHAR Eth
ENCODING 208
SWIDTH 778 0
DWIDTH 6 0
BBX 6 6 0 0
BITMAP
78
34
F4
64
68
F0
ENDCHAR

STARTCHAR Ntilde
ENCODING 209
SWIDTH 778 0
DWIDTH 6 0
BBX 7 8 0 0
BITMAP
14
28
26
34
3C
78
58
C8
ENDCHAR

STARTCHAR Ograve
ENCODING 210
SWIDTH 833 0
DWIDTH 6 0
BBX 6 8 0 0
BITMAP
20
10
38
6C
CC
CC
D8
70
ENDCHAR

STARTCHAR Oacute
ENCODING 211
SWIDTH 833 0
DWIDTH 6 0
BBX 6 8 0 0
BITMAP
08
10
38
6C
CC
CC
D8
70
ENDCHAR

STARTCHAR Ocircumflex
ENCODING 212
SWIDTH 833 0
DWIDTH 6 0
BBX 6 8 0 0
BITMAP
10
28
38
6C
CC
CC
D8
70
ENDCHAR

STARTCHAR Otilde
ENCODING 213
SWIDTH 833 0
DWIDTH 6 0
BBX 6 8 0 0
BITMAP
28
50
38
6C
CC
CC
D8
70
ENDCHAR

STARTCHAR Odieresis
ENCODING 214
SWIDTH 833 0
DWIDTH 6 0
BBX 6 8 0 0
BITMAP
28
00
38
6C
CC
CC
D8
70
ENDCHAR

STARTCHAR multiply
ENCODING 215
SWIDTH 606 0
DWIDTH 5 0
BBX 5 5 0 0
BITMAP
88
50
20
50
88
ENDCHAR

STARTCHAR Oslash
ENCODING 216
SWIDTH 833 0
DWIDTH 6 0
BBX 6 6 0 0
BITMAP
3C
6C
DC
EC
D8
F0
ENDCHAR

STARTCHAR Ugrave
ENCODING 217
SWIDTH 778 0
DWIDTH 7 0
BBX 7 8 0 0
BITMAP
20
10
EE
6C
6C
D8
D8
EC
ENDCHAR

STARTCHAR Uacute
ENCODING 218
SWIDTH 778 0
DWIDTH 7 0
BBX 7 8 0 0
BITMAP
08
10
EE
6C
6C
D8
D8
EC
ENDCHAR

STARTCHAR Ucircumflex
ENCODING 219
SWIDTH 778 0
DWIDTH 7 0
BBX 7 8 0 0
BITMAP
10
28
EE
6C
6C
D8
D8
EC
ENDCHAR

STARTCHAR Udieresis
ENCODING 220
SWIDTH 778 0
DWIDTH 7 0
BBX 7 8 0 0
BITMAP
28
00
EE
6C
6C
D8
D8
EC
ENDCHAR

STARTCHAR Yacute
ENCODING 221
SWIDTH 611 0
DWIDTH 5 0
BBX 5 8 0 0
BITMAP
10
20
C8
D0
60
60
60
60
ENDCHAR

STARTCHAR Thorn
ENCODING 222
SWIDTH 667 0
DWIDTH 5 0
BBX 5 6 0 0
BITMAP
E0
78
68
E8
D0
C0
ENDCHAR

STARTCHAR germandbls
ENCODING 223
SWIDTH 556 0
DWIDTH 4 0
BBX 5 8 -1 -2
BITMAP
18
38
E8
70
68
78
60
C0
ENDCHAR

STARTCHAR agrave
ENCODING 224
SWIDTH 556 0
DWIDTH 4 0
BBX 4 6 0 0
BITMAP
40
20
70
70
E0
F0
ENDCHAR

STARTCHAR aacute
ENCODING 225
SWIDTH 556 0
DWIDTH 4 0
BBX 4 6 0 0
BITMAP
10
20
70
70
E0
F0
ENDCHAR

STARTCHAR acircumflex
ENCODING 226
SWIDTH 556 0
DWIDTH 4 0
BBX 4 6 0 0
BITMAP
20
50
70
70
E0
F0
ENDCHAR

STARTCHAR atilde
ENCODING 227
SWIDTH 556 0
DWIDTH 4 0
BBX 4 6 0 0
BITMAP
50
A0
70
70
E0
F0
ENDCHAR

STARTCHAR adieresis
ENCODING 228
SWIDTH 556 0
DWIDTH 4 0
BBX 4 6 0 0
BITMAP
50
00
70
70
E0
F0
ENDCHAR

STARTCHAR aring
ENCODING 229
SWIDTH 556 0
DWIDTH 4 0
BBX 4 7 0 0
BITMAP
20
50
20
70
70
E0
F0
ENDCHAR

STARTCHAR ae
ENCODING 230
SWIDTH 738 0
DWIDTH 6 0
BBX 6 4 0 0
BITMAP
7C
7C
F0
D8
ENDCHAR

STARTCHAR ccedilla
ENCODING 231
SWIDTH 444 0
DWIDTH 4 0
BBX 4 6 0 -2
BITMAP
70
C0
C0
E0
40
C0
ENDCHAR

STARTCHAR egrave
ENCODING 232
SWIDTH 444 0
DWIDTH 4 0
BBX 4 6 0 0
BITMAP
40
20
70
F0
C0
E0
ENDCHAR

STARTCHAR eacute
ENCODING 233
SWIDTH 444 0
DWIDTH 4 0
BBX 4 6 0 0
BITMAP
10
20
70
F0
C0
E0
ENDCHAR

STARTCHAR ecircumflex
ENCODING 234
SWIDTH 444 0
DWIDTH 4 0
BBX 4 6 0 0
BITMAP
20
50
70
F0
C0
E0
ENDCHAR

STARTCHAR edieresis
ENCODING 235
SWIDTH 444 0
DWIDTH 4 0
BBX 4 6 0 0
BITMAP
50
00
70
F0
C0
E0
ENDCHAR

STARTCHAR igrave
ENCODING 236
SWIDTH 333 0
DWIDTH 3 0
BBX 3 6 0 0
BITMAP
40
20
60
60
C0
E0
ENDCHAR

STARTCHAR iacute
ENCODING 237
SWIDTH 333 0
DWIDTH 3 0
BBX 3 6 0 0
BITMAP
20
40
60
60
C0
E0
ENDCHAR

STARTCHAR icircumflex
ENCODING 238
SWIDTH 333 0
DWIDTH 3 0
BBX 4 6 0 0
BITMAP
20
50
60
60
C0
E0
ENDCHAR

STARTCHAR idieresis
ENCODING 239
SWIDTH 333 0
DWIDTH 3 0
BBX 4 6 0 0
BITMAP
50
00
60
60
C0
E0
ENDCHAR

STARTCHAR eth
ENCODING 240
SWIDTH 556 0
DWIDTH 4 0
BBX 4 6 0 0
BITMAP
F0
E0
70
D0
D0
E0
ENDCHAR

STARTCHAR ntilde
ENCODING 241
SWIDTH 556 0
DWIDTH 5 0
BBX 5 6 0 0
BITMAP
28
50
70
70
D0
D0
ENDCHAR

STARTCHAR ograve
ENCODING 242
SWIDTH 556 0
DWIDTH 4 0
BBX 4 6 0 0
BITMAP
40
20
70
D0
D0
E0
ENDCHAR

STARTCHAR oacute
ENCODING 243
SWIDTH 556 0
DWIDTH 4 0
BBX 4 6 0 0
BITMAP
10
20
70
D0
D0
E0
ENDCHAR

STARTCHAR ocircumflex
ENCODING 244
SWIDTH 556 0
DWIDTH 4 0
BBX 4 6 0 0
BITMAP
20
50
70
D0
D0
E0
ENDCHAR

STARTCHAR otilde
ENCODING 245
SWIDTH 556 0
DWIDTH 4 0
BBX 5 6 0 0
BITMAP
28
50
70
D0
D0
E0
ENDCHAR

STARTCHAR odieresis
ENCODING 246
SWIDTH 556 0
DWIDTH 4 0
BBX 4 6 0 0
BITMAP
50
00
70
D0
D0
E0
ENDCHAR

STARTCHAR divide
ENCODING 247
SWIDTH 606 0
DWIDTH 5 0
BBX 5 5 0 0
BITMAP
20
00
F8
00
20
ENDCHAR

STARTCHAR oslash
ENCODING 248
SWIDTH 556 0
DWIDTH 4 0
BBX 4 4 0 0
BITMAP
70
F0
D0
E0
ENDCHAR

STARTCHAR ugrave
ENCODING 249
SWIDTH 556 0
DWIDTH 5 0
BBX 5 6 0 0
BITMAP
40
20
D8
58
B0
F0
ENDCHAR

STARTCHAR uacute
ENCODING 250
SWIDTH 556 0
DWIDTH 5 0
BBX 5 6 0 0
BITMAP
10
20
D8
58
B0
F0
ENDCHAR

STARTCHAR ucircumflex
ENCODING 251
SWIDTH 556 0
DWIDTH 5 0
BBX 5 6 0 0
BITMAP
20
50
D8
58
B0
F0
ENDCHAR

STARTCHAR udieresis
ENCODING 252
SWIDTH 556 0
DWIDTH 5 0
BBX 5 6 0 0
BITMAP
50
00
D8
58
B0
F0
ENDCHAR

STARTCHAR yacute
ENCODING 253
SWIDTH 556 0
DWIDTH 5 0
BBX 5 8 0 -2
BITMAP
10
20
D8
58
70
70
30
E0
ENDCHAR

STARTCHAR thorn
ENCODING 254
SWIDTH 556 0
DWIDTH 4 0
BBX 4 8 0 -2
BITMAP
C0
40
70
50
90
E0
80
80
ENDCHAR

STARTCHAR ydieresis
ENCODING 255
SWIDTH 556 0
DWIDTH 5 0
BBX 5 8 0 -2
BITMAP
28
00
D8
58
70
70
30
E0
ENDCHAR
ENDFONT
